<?xml version="1.0" encoding="utf-8" ?>
<svg xmlns="http://www.w3.org/2000/svg" xmlns:xlink="http://www.w3.org/1999/xlink" width="1024" height="1024">
	<path fill="#82CFD6" transform="scale(2 2)" d="M343.84 397.907C353.195 399.427 372.52 412.177 373.665 423.337C376.532 451.297 306.576 461.36 287.797 463.387C250.042 467.461 203.41 464.29 167.885 450.7C156.642 446.399 138.996 439.076 137.593 425.103C136.633 411.576 155.43 402.709 165.864 398.917C139.478 421.084 174.78 435.531 194.438 440.603C226.201 448.799 264.512 450.004 297.18 445.22C317.002 442.318 381.335 425.318 343.84 397.907Z"/>
	<path fill="#BA1B75" transform="scale(2 2)" d="M253.127 46.6322C282.592 44.7332 318.763 56.2334 342.999 71.9443C387.099 100.531 412.731 147.303 416.068 199.766C417.47 221.813 416.253 229.426 408.497 249.984C384.103 314.648 328.167 375.759 275.871 420.613C270.04 425.615 262.666 432.501 256.243 436.472C256.821 433.967 256.285 430.727 256.265 428.118L256.243 327.613L256.67 327.614C325.271 327.587 380.455 272.512 380.223 203.815C379.986 133.632 321.645 80.5852 253.127 80.9121C253.984 80.5649 255.322 80.8431 256.243 80.9121L256.257 62.142C256.258 57.223 258.245 47.0755 253.127 46.6322Z"/>
	<path fill="#821B5E" transform="scale(2 2)" d="M256.243 436.472C249.856 436.589 197.17 384.658 189.909 377.089C153.799 339.448 97.1395 268.445 96.1244 212.542C94.4872 122.379 162.192 48.2386 253.127 46.6322C258.245 47.0755 256.258 57.223 256.257 62.142L256.243 80.9121C255.322 80.8431 253.984 80.5649 253.127 80.9121C184.499 83.4848 129.319 141.127 131.994 210.228C134.539 275.942 190.241 329.785 256.243 327.613L256.265 428.118C256.285 430.727 256.821 433.967 256.243 436.472Z"/>
	<path fill="#FCFCFC" transform="scale(2 2)" d="M251.584 101.768C309.477 101.251 356.306 141.971 359.178 200.589C361.973 257.634 318.118 304.796 261.325 307.249C238.345 307.42 220.066 303.634 200.382 291.409C123.214 243.485 144.676 124.238 233.927 104.3C239.748 103 245.658 102.37 251.584 101.768ZM253.127 156.663C245.751 158.915 241.062 163.624 236.862 169.895C231.736 182.859 227.205 207.709 220.625 217.998C219.328 221.57 218.885 226.777 215.03 228.5C190.76 239.347 188.74 254.381 216.13 264.227C240.295 272.914 277.984 273.298 301.407 262.091C324.821 250.89 315.759 235.366 296.102 227.861C294.881 224.591 293.609 221.333 292.576 217.998C290.821 212.525 285.243 200.423 284.59 196.27C284.841 195.599 285.266 195.431 285.826 195.014C283.487 194.412 281.611 194.661 279.277 195.014C283.206 206.315 291.255 224.824 293.669 235.637C272.984 245.662 240.164 244.373 219.267 235.637C223.173 222.803 228.486 210.31 232.71 197.556C238.78 179.226 239.395 159.983 264.52 159.001C264.611 154.774 255.506 156.001 253.127 156.663Z"/>
	<path fill="#821B5E" transform="scale(2 2)" d="M206.937 127.748C214.634 131.357 252.71 155.967 253.127 156.663C245.751 158.915 241.062 163.624 236.862 169.895C226.286 156.394 216.633 141.88 206.937 127.748Z"/>
	<path fill="#821B5E" transform="scale(2 2)" d="M292.576 217.998C305.402 219.132 342.892 238.305 329.119 256.498C305.163 288.143 217.986 284.598 189.019 262.266C161.972 241.413 202.375 220.136 220.625 217.998C219.328 221.57 218.885 226.777 215.03 228.5C190.76 239.347 188.74 254.381 216.13 264.227C240.295 272.914 277.984 273.298 301.407 262.091C324.821 250.89 315.759 235.366 296.102 227.861C294.881 224.591 293.609 221.333 292.576 217.998Z"/>
	<path fill="#BA1B75" transform="scale(2 2)" d="M214.516 233.01C215.419 234.103 214.814 236.691 216.572 238.354C227.523 248.712 286.138 249.065 296.407 238.223C297.876 236.673 297.792 235.004 297.712 233.01C313.032 239.295 315.47 248.594 301.116 257.323L299.576 258.116C253.925 281.042 166.156 252.63 214.516 233.01Z"/>
	<path fill="#821B5E" transform="scale(2 2)" d="M264.52 159.001C293.488 156.913 295.252 181.547 308.572 192.778C314.704 197.949 322.507 199.571 329.119 203.851C310.506 213.814 300.359 200.479 285.826 195.014C283.487 194.412 281.611 194.661 279.277 195.014C283.206 206.315 291.255 224.824 293.669 235.637C272.984 245.662 240.164 244.373 219.267 235.637C223.173 222.803 228.486 210.31 232.71 197.556C238.78 179.226 239.395 159.983 264.52 159.001Z"/>
</svg>
